<mxfile host="Electron" modified="2024-02-03T13:24:52.887Z" agent="Mozilla/5.0 (Windows NT 10.0; Win64; x64) AppleWebKit/537.36 (KHTML, like Gecko) draw.io/23.0.2 Chrome/120.0.6099.109 Electron/28.1.0 Safari/537.36" etag="m_Z2jLkyfJCMQpbmVK7f" version="23.0.2" type="device">
  <diagram name="第 1 页" id="o3UMnivyae-Ou7uCvYya">
    <mxGraphModel dx="759" dy="568" grid="1" gridSize="10" guides="1" tooltips="1" connect="1" arrows="1" fold="1" page="1" pageScale="1" pageWidth="827" pageHeight="1169" math="0" shadow="0">
      <root>
        <mxCell id="0" />
        <mxCell id="1" parent="0" />
        <mxCell id="UyuvW6fJh573paZwKca1-26" value="" style="rounded=0;whiteSpace=wrap;html=1;fillColor=#f5f5f5;fontColor=#333333;strokeColor=#666666;" parent="1" vertex="1">
          <mxGeometry x="613" y="180" width="140.5" height="270" as="geometry" />
        </mxCell>
        <mxCell id="UyuvW6fJh573paZwKca1-25" value="" style="rounded=0;whiteSpace=wrap;html=1;fillColor=#f5f5f5;fontColor=#333333;strokeColor=#666666;" parent="1" vertex="1">
          <mxGeometry x="420" y="180" width="140.5" height="270" as="geometry" />
        </mxCell>
        <mxCell id="UyuvW6fJh573paZwKca1-24" value="" style="rounded=0;whiteSpace=wrap;html=1;fillColor=#f5f5f5;fontColor=#333333;strokeColor=#666666;" parent="1" vertex="1">
          <mxGeometry x="222.75" y="180" width="140.5" height="270" as="geometry" />
        </mxCell>
        <mxCell id="UyuvW6fJh573paZwKca1-19" value="" style="rounded=0;whiteSpace=wrap;html=1;fillColor=#f5f5f5;fontColor=#333333;strokeColor=#666666;" parent="1" vertex="1">
          <mxGeometry x="22.75" y="180" width="140.5" height="270" as="geometry" />
        </mxCell>
        <mxCell id="UyuvW6fJh573paZwKca1-1" value="master" style="shape=cylinder3;whiteSpace=wrap;html=1;boundedLbl=1;backgroundOutline=1;size=15;fillColor=#e51400;strokeColor=#B20000;fontColor=#ffffff;" parent="1" vertex="1">
          <mxGeometry x="53" y="230" width="80" height="60" as="geometry" />
        </mxCell>
        <mxCell id="UyuvW6fJh573paZwKca1-5" value="slave" style="shape=cylinder3;whiteSpace=wrap;html=1;boundedLbl=1;backgroundOutline=1;size=15;fillColor=#6d8764;fontColor=#ffffff;strokeColor=#3A5431;" parent="1" vertex="1">
          <mxGeometry x="53" y="370" width="80" height="60" as="geometry" />
        </mxCell>
        <mxCell id="UyuvW6fJh573paZwKca1-6" value="master" style="shape=cylinder3;whiteSpace=wrap;html=1;boundedLbl=1;backgroundOutline=1;size=15;fillColor=#e51400;fontColor=#ffffff;strokeColor=#B20000;" parent="1" vertex="1">
          <mxGeometry x="253" y="230" width="80" height="60" as="geometry" />
        </mxCell>
        <mxCell id="UyuvW6fJh573paZwKca1-7" value="slave" style="shape=cylinder3;whiteSpace=wrap;html=1;boundedLbl=1;backgroundOutline=1;size=15;fillColor=#6d8764;fontColor=#ffffff;strokeColor=#3A5431;" parent="1" vertex="1">
          <mxGeometry x="253" y="370" width="80" height="60" as="geometry" />
        </mxCell>
        <mxCell id="UyuvW6fJh573paZwKca1-8" value="master" style="shape=cylinder3;whiteSpace=wrap;html=1;boundedLbl=1;backgroundOutline=1;size=15;fillColor=#6d8764;fontColor=#ffffff;strokeColor=#3A5431;" parent="1" vertex="1">
          <mxGeometry x="450.25" y="230" width="80" height="60" as="geometry" />
        </mxCell>
        <mxCell id="UyuvW6fJh573paZwKca1-12" value="" style="shape=umlDestroy;whiteSpace=wrap;html=1;strokeWidth=3;targetShapes=umlLifeline;opacity=70;strokeColor=#000000;" parent="1" vertex="1">
          <mxGeometry x="253" y="230" width="80" height="60" as="geometry" />
        </mxCell>
        <mxCell id="UyuvW6fJh573paZwKca1-13" value="master" style="shape=cylinder3;whiteSpace=wrap;html=1;boundedLbl=1;backgroundOutline=1;size=15;fillColor=#6d8764;fontColor=#ffffff;strokeColor=#3A5431;" parent="1" vertex="1">
          <mxGeometry x="643.25" y="230" width="80" height="60" as="geometry" />
        </mxCell>
        <mxCell id="UyuvW6fJh573paZwKca1-14" value="new slave" style="shape=cylinder3;whiteSpace=wrap;html=1;boundedLbl=1;backgroundOutline=1;size=15;fillColor=#e3c800;fontColor=#000000;strokeColor=#B09500;" parent="1" vertex="1">
          <mxGeometry x="643.25" y="370" width="80" height="60" as="geometry" />
        </mxCell>
        <mxCell id="UyuvW6fJh573paZwKca1-18" value="" style="html=1;shadow=0;dashed=0;align=center;verticalAlign=middle;shape=mxgraph.arrows2.arrow;dy=0.6;dx=40;notch=0;fillColor=#dae8fc;strokeColor=#6c8ebf;" parent="1" vertex="1">
          <mxGeometry x="10" y="305" width="800" height="50" as="geometry" />
        </mxCell>
        <mxCell id="UyuvW6fJh573paZwKca1-27" value="T0" style="rounded=0;whiteSpace=wrap;html=1;fillColor=#1ba1e2;fontColor=#ffffff;strokeColor=#006EAF;" parent="1" vertex="1">
          <mxGeometry x="22.75" y="180" width="40" height="20" as="geometry" />
        </mxCell>
        <mxCell id="UyuvW6fJh573paZwKca1-28" value="T1" style="rounded=0;whiteSpace=wrap;html=1;fillColor=#1ba1e2;fontColor=#ffffff;strokeColor=#006EAF;" parent="1" vertex="1">
          <mxGeometry x="222.75" y="180" width="40" height="20" as="geometry" />
        </mxCell>
        <mxCell id="UyuvW6fJh573paZwKca1-29" value="T2" style="rounded=0;whiteSpace=wrap;html=1;fillColor=#1ba1e2;fontColor=#ffffff;strokeColor=#006EAF;" parent="1" vertex="1">
          <mxGeometry x="420" y="180" width="40" height="20" as="geometry" />
        </mxCell>
        <mxCell id="UyuvW6fJh573paZwKca1-30" value="T3" style="rounded=0;whiteSpace=wrap;html=1;fillColor=#1ba1e2;fontColor=#ffffff;strokeColor=#006EAF;" parent="1" vertex="1">
          <mxGeometry x="613" y="180" width="40" height="20" as="geometry" />
        </mxCell>
        <mxCell id="G0SITHDq7sZ5953DstlT-1" value="一切正常" style="rounded=0;whiteSpace=wrap;html=1;fillColor=#e3c800;fontColor=#000000;strokeColor=#B09500;" vertex="1" parent="1">
          <mxGeometry x="60" y="180" width="103.25" height="20" as="geometry" />
        </mxCell>
        <mxCell id="G0SITHDq7sZ5953DstlT-3" value="master宕机" style="rounded=0;whiteSpace=wrap;html=1;fillColor=#e3c800;fontColor=#000000;strokeColor=#B09500;" vertex="1" parent="1">
          <mxGeometry x="260" y="180" width="103.25" height="20" as="geometry" />
        </mxCell>
        <mxCell id="G0SITHDq7sZ5953DstlT-4" value="主从切换" style="rounded=0;whiteSpace=wrap;html=1;fillColor=#e3c800;fontColor=#000000;strokeColor=#B09500;" vertex="1" parent="1">
          <mxGeometry x="457.25" y="180" width="103.25" height="20" as="geometry" />
        </mxCell>
        <mxCell id="G0SITHDq7sZ5953DstlT-5" value="添加新从节点" style="rounded=0;whiteSpace=wrap;html=1;fillColor=#e3c800;fontColor=#000000;strokeColor=#B09500;" vertex="1" parent="1">
          <mxGeometry x="650" y="180" width="103.5" height="20" as="geometry" />
        </mxCell>
      </root>
    </mxGraphModel>
  </diagram>
</mxfile>
